<svg width="100%" height="100%" id="svg" viewBox="0 0 1440 700" xmlns="http://www.w3.org/2000/svg" class="transition duration-300 ease-in-out delay-150"><defs><linearGradient id="gradient" x1="0%" y1="50%" x2="100%" y2="50%"><stop offset="5%" stop-color="#002bdc44"></stop><stop offset="95%" stop-color="#f78da744"></stop></linearGradient></defs><path d="M 0,700 C 0,700 0,140 0,140 C 26.488766614989608,117.98698440672041 52.977533229979215,95.9739688134408 76,90 C 99.02246677002078,84.0260311865592 118.57863369507277,94.0911091529572 144,105 C 169.42136630492723,115.9088908470428 200.7079319897298,127.66159457473037 222,143 C 243.2920680102702,158.33840542526963 254.58963834600803,177.26251254812135 279,175 C 303.41036165399197,172.73748745187865 340.9335146262382,149.28835523278428 369,147 C 397.0664853737618,144.71164476721572 415.6763031490393,163.5840665207415 438,155 C 460.3236968509607,146.4159334792585 486.361272777605,110.37537868424972 507,118 C 527.638727222395,125.62462131575028 542.8786057405409,176.91441874225958 569,177 C 595.1213942594591,177.08558125774042 632.1243042602308,125.96694634671192 655,105 C 677.8756957397692,84.03305365328808 686.624177218536,93.2177958708927 711,105 C 735.375822781464,116.7822041291073 775.3789868656252,131.16187016971728 798,135 C 820.6210131343748,138.83812983028272 825.8598753189636,132.13472345023823 850,141 C 874.1401246810364,149.86527654976177 917.1815118585208,174.2992360293298 948,182 C 978.8184881414792,189.7007639706702 997.4140772469532,180.66833243244253 1015,165 C 1032.5859227530468,149.33166756755747 1049.1621791536663,127.02743424089994 1069,119 C 1088.8378208463337,110.97256575910006 1111.9372061383822,117.22193060395776 1139,138 C 1166.0627938616178,158.77806939604224 1197.088996292805,194.08484334326906 1226,182 C 1254.911003707195,169.91515665673094 1281.7068086903987,110.43869602296601 1301,103 C 1320.2931913096013,95.56130397703399 1332.0837689456002,140.16037256486686 1354,155 C 1375.9162310543998,169.83962743513314 1407.9581155271999,154.91981371756657 1440,140 C 1440,140 1440,700 1440,700 Z" stroke="none" stroke-width="0" fill="url(#gradient)" class="transition-all duration-300 ease-in-out delay-150 path-0"></path><defs><linearGradient id="gradient" x1="0%" y1="50%" x2="100%" y2="50%"><stop offset="5%" stop-color="#002bdc66"></stop><stop offset="95%" stop-color="#f78da766"></stop></linearGradient></defs><path d="M 0,700 C 0,700 0,280 0,280 C 22.598366256914595,280.4124764079637 45.19673251382919,280.82495281592736 65,282 C 84.80326748617081,283.17504718407264 101.81143620159781,285.11266514425427 131,267 C 160.18856379840219,248.88733485574576 201.5575226797796,210.72438660705566 229,229 C 256.4424773202204,247.27561339294434 269.95847307928403,321.9897884275232 288,331 C 306.04152692071597,340.0102115724768 328.6085850030843,283.3164596828516 357,263 C 385.3914149969157,242.68354031714844 419.6071869083788,258.7443728410705 443,278 C 466.3928130916212,297.2556271589295 478.9626673634003,319.70604895286647 501,308 C 523.0373326365997,296.29395104713353 554.5421436380196,250.43143134746367 580,239 C 605.4578563619804,227.56856865253633 624.8687580845208,250.5682256572788 646,261 C 667.1312419154792,271.4317743427212 689.982824023897,269.2956660234212 715,281 C 740.017175976103,292.7043339765788 767.1999458198911,318.24911024903645 790,310 C 812.8000541801089,301.75088975096355 831.2173926965386,259.7078929804329 854,245 C 876.7826073034614,230.29210701956706 903.930483393955,242.91931782923194 928,254 C 952.069516606045,265.08068217076806 973.0606737276411,274.6148357026393 996,268 C 1018.9393262723589,261.3851642973607 1043.8268216954802,238.62133936021064 1075,236 C 1106.1731783045198,233.37866063978936 1143.6320394904374,250.89980685651813 1164,274 C 1184.3679605095626,297.1001931434819 1187.6450203427694,325.7794332137168 1210,330 C 1232.3549796572306,334.2205667862832 1273.7878791384849,313.9824602886147 1300,304 C 1326.2121208615151,294.0175397113853 1337.20346310329,294.29072563182433 1358,292 C 1378.79653689671,289.70927436817567 1409.3982684483549,284.85463718408784 1440,280 C 1440,280 1440,700 1440,700 Z" stroke="none" stroke-width="0" fill="url(#gradient)" class="transition-all duration-300 ease-in-out delay-150 path-1"></path><defs><linearGradient id="gradient" x1="0%" y1="50%" x2="100%" y2="50%"><stop offset="5%" stop-color="#002bdc88"></stop><stop offset="95%" stop-color="#f78da788"></stop></linearGradient></defs><path d="M 0,700 C 0,700 0,420 0,420 C 15.205208543048393,414.30249775493144 30.410417086096786,408.60499550986293 59,407 C 87.58958291390321,405.39500449013707 129.56354019866123,407.88251571547966 156,402 C 182.43645980133877,396.11748428452034 193.3354221192583,381.8649416282183 210,376 C 226.6645778807417,370.1350583717817 249.0947713243056,372.6577177716472 274,373 C 298.9052286756944,373.3422822283528 326.2854925835194,371.5041872851929 351,393 C 375.7145074164806,414.4958127148071 397.7632583416169,459.3255330875811 427,470 C 456.2367416583831,480.6744669124189 492.6614740500129,457.19368036448253 516,439 C 539.3385259499871,420.80631963551747 549.5908454583313,407.899745454489 573,408 C 596.4091545416687,408.100254545511 632.9751441166617,421.20733781756155 660,437 C 687.0248558833383,452.79266218243845 704.5085780750218,471.27090327526497 723,461 C 741.4914219249782,450.72909672473503 760.990543583251,411.7090490813785 783,418 C 805.009456416749,424.2909509186215 829.5292475919739,475.8929003992211 854,468 C 878.4707524080261,460.1070996007789 902.8924660488532,392.7193493217372 932,376 C 961.1075339511468,359.2806506782628 994.9008882126138,393.22970231383044 1021,406 C 1047.0991117873862,418.77029768616956 1065.5039811006914,410.3618414229411 1086,408 C 1106.4960188993086,405.6381585770589 1129.0831873846214,409.3229319944053 1154,413 C 1178.9168126153786,416.6770680055947 1206.1632693608233,420.34643059943784 1228,429 C 1249.8367306391767,437.65356940056216 1266.263735172086,451.2913456078436 1292,443 C 1317.736264827914,434.7086543921564 1352.7817899508327,404.48818696918755 1379,397 C 1405.2182100491673,389.51181303081245 1422.6091050245836,404.7559065154062 1440,420 C 1440,420 1440,700 1440,700 Z" stroke="none" stroke-width="0" fill="url(#gradient)" class="transition-all duration-300 ease-in-out delay-150 path-2"></path><defs><linearGradient id="gradient" x1="0%" y1="50%" x2="100%" y2="50%"><stop offset="5%" stop-color="#002bdcff"></stop><stop offset="95%" stop-color="#f78da7ff"></stop></linearGradient></defs><path d="M 0,700 C 0,700 0,560 0,560 C 22.092012684837563,546.9174532973816 44.184025369675126,533.8349065947631 71,524 C 97.81597463032487,514.1650934052369 129.3559112061371,507.57782691832904 157,520 C 184.6440887938629,532.422173081671 208.39232980577654,563.8537857319207 226,576 C 243.60767019422346,588.1462142680793 255.0747695707568,581.0070301539884 276,577 C 296.9252304292432,572.9929698460116 327.3085919111961,572.118093652126 358,580 C 388.6914080888039,587.881906347874 419.6908627844586,604.5205952375072 441,611 C 462.3091372155414,617.4794047624928 473.9279569509695,613.7995253978453 495,592 C 516.0720430490305,570.2004746021547 546.5973094116632,530.2813031711115 575,522 C 603.4026905883368,513.7186968288885 629.6828054023778,537.0752619177089 655,557 C 680.3171945976222,576.9247380822911 704.6714689788257,593.4176491580533 730,586 C 755.3285310211743,578.5823508419467 781.631318682319,547.2541414500778 804,544 C 826.368681317681,540.7458585499222 844.8032562918977,565.5657850416353 865,555 C 885.1967437081023,544.4342149583647 907.1556561500904,498.48271838338076 933,508 C 958.8443438499096,517.5172816166192 988.5741191077407,582.5033414248418 1013,593 C 1037.4258808922593,603.4966585751582 1056.5478674189474,559.5039159172519 1080,554 C 1103.4521325810526,548.4960840827481 1131.23441121647,581.4809949061506 1156,589 C 1180.76558878353,596.5190050938494 1202.514487715173,578.5721044581452 1223,562 C 1243.485512284827,545.4278955418548 1262.7076379228379,530.2305872612685 1290,527 C 1317.2923620771621,523.7694127387315 1352.654960593475,532.5055464967804 1379,540 C 1405.345039406525,547.4944535032196 1422.6725197032624,553.7472267516098 1440,560 C 1440,560 1440,700 1440,700 Z" stroke="none" stroke-width="0" fill="url(#gradient)" class="transition-all duration-300 ease-in-out delay-150 path-3"></path></svg>